# xmcd CD database file
#
# Track frame offsets:
#	150
#	17472
#	34970
#	52342
#	68950
#	87897
#	103997
#	120317
#	137685
#	154562
#	173020
#	188375
#	205662
#	221945
#	237007
#	253290
#	271370
#	288895
#	302047
#	318627
#
# Disc length: 4470 seconds
#
# Revision: 1
# Processed by: cddbd v1.5.2PL0 Copyright (c) Steve Scherf et al.
# Submitted via: CDex 1.51
#
DISCID=1f117414
DTITLE=Various Artist - Uwe Hüber auf Tournee 1998
DYEAR=1998
DGENRE=Deutsch
TTITLE0=Bernhard Brink, Nie mehr
TTITLE1=Ines Adler, Ich war so lange nicht verliebt
TTITLE2=Andy Borg, Zum Teufel mit der Einsamkeit
TTITLE3=Cordalis, Viva la Noche
TTITLE4=Leon, Planet of Blue
TTITLE5=Ireen Sheer, Männer wie du
TTITLE6=Roland Kaiser, Manchmal möchte ich schon mit dir
TTITLE7=Bernhard Brink, Blondes Wunder
TTITLE8=Ines Adler, Warum kann der Clown nicht lachen
TTITLE9=Andy Borg, Zärtlichkeit braucht Zeit
TTITLE10=Cordalis, Anita
TTITLE11=Ireen Sheer, Heute Abend hab ich Kopfweh
TTITLE12=Roland Kaiser, Ich glaub es geht schon wieder los
TTITLE13=Bernhard Brink, Ich wär so gern wie du
TTITLE14=Ines Adler, Dafür lieb ich dich
TTITLE15=Andy Borg, Die berühmten drei Worte
TTITLE16=Cordalis, Vamos A La Playa
TTITLE17=Leon,  Schein ( Meine kleine Taschenlampe )
TTITLE18=Ireen Sherr, Ich vermisse dich
TTITLE19=Roland Kaiser Dich zu lieben
EXTD=YEAR: 1998
EXTT0=
EXTT1=
EXTT2=
EXTT3=
EXTT4=
EXTT5=
EXTT6=
EXTT7=
EXTT8=
EXTT9=
EXTT10=
EXTT11=
EXTT12=
EXTT13=
EXTT14=
EXTT15=
EXTT16=
EXTT17=
EXTT18=
EXTT19=
PLAYORDER=
